<svg preserveAspectRatio="none" overflow="visible" style="display: block;" width="24" height="24" viewBox="0 0 24 24" fill="none" xmlns="http://www.w3.org/2000/svg">
<g id="lucide:wrench">
<path id="Vector" d="M14.7005 6.29979C14.5172 6.48672 14.4146 6.73803 14.4146 6.99979C14.4146 7.26154 14.5172 7.51286 14.7005 7.69979L16.3005 9.29979C16.4874 9.48301 16.7387 9.58564 17.0005 9.58564C17.2622 9.58564 17.5135 9.48301 17.7005 9.29979L20.8065 6.19479C21.1265 5.87279 21.6695 5.97479 21.7895 6.41279C22.0916 7.51166 22.0745 8.67386 21.7402 9.76338C21.406 10.8529 20.7683 11.8247 19.9019 12.565C19.0354 13.3054 17.9761 13.7836 16.8477 13.9439C15.7194 14.1041 14.5688 13.9396 13.5305 13.4698L5.62047 21.3798C5.22264 21.7775 4.68313 22.0008 4.12061 22.0008C3.5581 22.0007 3.01866 21.7771 2.62097 21.3793C2.22327 20.9815 1.99991 20.4419 2 19.8794C2.00009 19.3169 2.22364 18.7775 2.62147 18.3798L10.5315 10.4698C10.0616 9.4315 9.89717 8.28087 10.0574 7.15253C10.2176 6.0242 10.6959 4.96484 11.4362 4.0984C12.1766 3.23196 13.1484 2.5943 14.2379 2.26001C15.3274 1.92573 16.4896 1.90865 17.5885 2.21079C18.0265 2.33079 18.1285 2.87279 17.8075 3.19479L14.7005 6.29979Z" stroke="#ED1D23" stroke-width="2" stroke-linecap="round" stroke-linejoin="round"/>
</g>
</svg>
