<svg preserveAspectRatio="none" overflow="visible" style="display: block;" width="32.7505" height="32.7493" viewBox="0 0 32.7505 32.7493" fill="none" xmlns="http://www.w3.org/2000/svg">
<g id="Group">
<path id="Vector" d="M18.0252 7.60742L21.2419 13.3408M28.2686 16.3741C26.7172 17.9542 24.8665 19.2092 22.8245 20.066C20.7826 20.9227 18.5905 21.364 16.3761 21.364C14.1617 21.364 11.9695 20.9227 9.92761 20.066C7.88569 19.2092 6.03498 17.9542 4.48358 16.3741M31.3752 31.3741L27.7752 24.9741M1.37524 31.3741L14.7419 7.60742" stroke="#ED1D23" stroke-width="2.75" stroke-linecap="round" stroke-linejoin="round"/>
<path id="Vector_2" d="M16.3756 8.04167C18.2165 8.04167 19.7089 6.54928 19.7089 4.70833C19.7089 2.86738 18.2165 1.375 16.3756 1.375C14.5346 1.375 13.0422 2.86738 13.0422 4.70833C13.0422 6.54928 14.5346 8.04167 16.3756 8.04167Z" stroke="#ED1D23" stroke-width="2.75" stroke-linecap="round" stroke-linejoin="round"/>
</g>
</svg>
