<svg preserveAspectRatio="none" overflow="visible" style="display: block;" width="29.4167" height="36.0889" viewBox="0 0 29.4167 36.0889" fill="none" xmlns="http://www.w3.org/2000/svg">
<g id="Group">
<path id="Vector" d="M28.0417 19.7091C28.0417 28.0424 22.2083 32.2091 15.275 34.6258C14.9119 34.7488 14.5176 34.7429 14.1583 34.6091C7.20833 32.2091 1.375 28.0424 1.375 19.7091V8.04242C1.375 7.60039 1.5506 7.17647 1.86316 6.86391C2.17572 6.55134 2.59964 6.37575 3.04167 6.37575C6.375 6.37575 10.5417 4.37575 13.4417 1.84242C13.7948 1.54075 14.2439 1.375 14.7083 1.375C15.1727 1.375 15.6219 1.54075 15.975 1.84242C18.8917 4.39242 23.0417 6.37575 26.375 6.37575C26.817 6.37575 27.241 6.55134 27.5535 6.86391C27.8661 7.17647 28.0417 7.60039 28.0417 8.04242V19.7091Z" stroke="#ED1D23" stroke-width="2.75" stroke-linecap="round" stroke-linejoin="round"/>
<path id="Vector_2" d="M9.70833 18.0424L13.0417 21.3757L19.7083 14.7091" stroke="#ED1D23" stroke-width="2.75" stroke-linecap="round" stroke-linejoin="round"/>
</g>
</svg>
